<?xml version="1.0" encoding="iso-8859-1"?>
<!-- Generator: Adobe Illustrator 16.0.0, SVG Export Plug-In . SVG Version: 6.00 Build 0)  -->
<!DOCTYPE svg PUBLIC "-//W3C//DTD SVG 1.1//EN" "http://www.w3.org/Graphics/SVG/1.1/DTD/svg11.dtd">
<svg id="\u0421\u043B\u043E\u0439_1" data-name="\u0421\u043B\u043E\u0439 1" class="kitbag-logo" style="width: 148px;"><defs><style>.cls-1{fill:#fff;}</style></defs><title>Kitbag logo white final</title><path class="cls-1" d="M90,44.81a6,6,0,0,1-1.54,5.65A8.45,8.45,0,0,1,84,52.56l-1,.17-.69-3.94.84-.15a3.14,3.14,0,0,0,2.25-1.32,2.55,2.55,0,0,0,.38-1.89L84.4,37.76,72.76,39.81l-.7-3.94,14.6-2.57a1.15,1.15,0,0,1,1,.28,1.57,1.57,0,0,1,.55,1ZM80.78,58.93l-4.22.75L73.75,43.76,78,43Z"></path><path class="cls-1" d="M81.11,23.91a21.26,21.26,0,1,0,21.26,21.26A21.26,21.26,0,0,0,81.11,23.91Zm0,39A17.76,17.76,0,1,1,98.86,45.17,17.76,17.76,0,0,1,81.11,62.93Z"></path><path class="cls-1" d="M43.9,97.84h-4l-1.75-4.62-2.08,4.62H30l2-5.19h6.14L37,79H33.88V73.83h6.91c.69,0,1.06.28,1.11.85Z"></path><path class="cls-1" d="M67.28,97.84H47.89V92.65H59.61V79H47.71V73.83H62.55a2.34,2.34,0,0,1,1.87.86,3,3,0,0,1,.75,2V92.65h2.11Z"></path><path class="cls-1" d="M93.2,97.84H72.11V83.33L73.71,79h-2V73.83h7.69c.7,0,1,.44,1,1.31V79H79.17l-1.48,4.77v8.86h10V80.54a3.14,3.14,0,0,0-2.37-1.47L83.63,83.8h-2.9L83.8,73.57A11,11,0,0,1,90,75.24a7.18,7.18,0,0,1,3.23,5.17Z"></path><path class="cls-1" d="M106.41,85.14h-5.65V79H97.23V73.83H105c1,0,1.44.58,1.44,1.75Z"></path><path class="cls-1" d="M132.38,89.31q0,4.65-3.24,6.86a10.82,10.82,0,0,1-6.22,1.67h-1.31V92.65h1.12a4.11,4.11,0,0,0,3.17-1.18,3.31,3.31,0,0,0,.9-2.33V79H111.45V73.83h19.24a1.5,1.5,0,0,1,1.21.59,2.09,2.09,0,0,1,.48,1.36Zm-15,16h-5.55v-21h5.55Z"></path><path class="cls-1" d="M31.07,117.27a4.31,4.31,0,0,0,3.35-4c0-.89-.36-1.06-1.11-1.06H30v-2a8.18,8.18,0,0,0-.2-2.25l1.15-.19a10.81,10.81,0,0,1,.14,2.18v1h2.73c1.44,0,1.78.72,1.78,2a6.1,6.1,0,0,1-4.74,5.83Z"></path><path class="cls-1" d="M38.77,114.16c0-1.21-.14-1.65-1.24-1.92a6.91,6.91,0,0,1-1-.27l.24-1.24a4.92,4.92,0,0,0,1,.22c1.58.34,2.09.87,2.09,3v4.62h-1.1Z"></path><path class="cls-1" d="M41.68,116.71A5.16,5.16,0,0,1,43,113a24.25,24.25,0,0,0-1.91-2l0-.07,1.51-.11c.72.73,1.77,1.92,3.25,3.76a2.08,2.08,0,0,0,.92-1.85A5,5,0,0,0,46.4,111l1.39-.12a5,5,0,0,1,.27,1.66,3.2,3.2,0,0,1-1.61,2.79c.76.93,2,2.63,2.38,3.31H47.34a44,44,0,0,0-3.72-4.87,4,4,0,0,0-.72,2.68,7.77,7.77,0,0,0,.4,2.19H41.94A7.17,7.17,0,0,1,41.68,116.71Z"></path><path class="cls-1" d="M49.36,111l1.34-.12c.1.34.29,1.4.72,4,1.42-.33,1.66-.89,1.66-1.91a7.11,7.11,0,0,0-.38-2l1.32-.12a7.31,7.31,0,0,1,.3,1.93c0,1.33-.39,2.55-2.78,3,0,.14.18,1.14.27,1.61a11,11,0,0,0,1.54-.23c1.75-.38,2.81-1.13,2.81-3.53a8.41,8.41,0,0,0-.48-2.66l1.36-.11a9.39,9.39,0,0,1,.33,2.49c0,3.46-2,4.63-4.22,5-.89.16-1.77.27-2.25.31C50.61,116.82,49.77,112.11,49.36,111Z"></path><path class="cls-1" d="M59.51,117.27a4.31,4.31,0,0,0,3.35-4c0-.89-.35-1.06-1.1-1.06H58.4v-2a8.59,8.59,0,0,0-.2-2.25l1.14-.19a10.07,10.07,0,0,1,.14,2.18v1h2.73c1.44,0,1.78.72,1.78,2a6.11,6.11,0,0,1-4.73,5.83Z"></path><path class="cls-1" d="M72.35,113c0-.79-.11-.84-.54-.84H69.59A8.18,8.18,0,0,1,68,112.1l.24-1.27a13,13,0,0,0,2,.07h2.32c.77,0,.89.18.89,1.38v9H72.35Z"></path><path class="cls-1" d="M75.38,115.22a4.49,4.49,0,0,0,.89-2.16c0-.47-.27-.62-.92-.8a8.55,8.55,0,0,1-.86-.29l.24-1.24c.19.07.48.15.83.24,1.34.3,1.81.72,1.81,1.77a5.53,5.53,0,0,1-1.12,2.91Z"></path><path class="cls-1" d="M82.75,114.2c0-1.39-.15-2-1.48-2h-1.4a8.18,8.18,0,0,1-1.57-.08l.24-1.26a15.09,15.09,0,0,0,2,.06h.87c2.07,0,2.46.49,2.46,2.91v4.78H82.75Z"></path><path class="cls-1" d="M85.67,117.37a15.53,15.53,0,0,1,1.93-.07h2.19c-.39-.4-1.28-1.51-2.81-3.53-.72-1-1.57-2.08-2.15-2.82l1.59-.14c.59.85,1.58,2.29,2.37,3.37A1.71,1.71,0,0,0,90,112.34a4,4,0,0,0-.32-1.39l1.38-.12a3.7,3.7,0,0,1,.19,1.21,2.79,2.79,0,0,1-2,2.87,19.18,19.18,0,0,0,2.2,2.63l-.24,1H87.46c-.94,0-1.78,0-2.09,0Z"></path><path class="cls-1" d="M95.78,116.71A5.15,5.15,0,0,1,97.1,113a26.05,26.05,0,0,0-1.9-2l0-.07,1.51-.11c.72.73,1.77,1.92,3.25,3.76a2.06,2.06,0,0,0,.92-1.85,5,5,0,0,0-.42-1.79l1.38-.12a4.74,4.74,0,0,1,.27,1.66,3.18,3.18,0,0,1-1.61,2.79c.76.93,2,2.63,2.39,3.31h-1.5a44,44,0,0,0-3.72-4.87A4,4,0,0,0,97,116.4a8.14,8.14,0,0,0,.4,2.19H96A7.62,7.62,0,0,1,95.78,116.71Z"></path><path class="cls-1" d="M104.36,117.27a4.31,4.31,0,0,0,3.35-4c0-.89-.36-1.06-1.1-1.06h-3.37v-2a8.18,8.18,0,0,0-.2-2.25l1.15-.19a10.81,10.81,0,0,1,.14,2.18v1h2.73c1.44,0,1.78.72,1.78,2a6.1,6.1,0,0,1-4.74,5.83Z"></path><path class="cls-1" d="M116.78,114.2c0-1.39-.15-2-1.48-2h-1.4a8.18,8.18,0,0,1-1.57-.08l.24-1.26a15.09,15.09,0,0,0,2,.06h.87c2.07,0,2.46.49,2.46,2.91v4.78h-1.09Z"></path><path class="cls-1" d="M119.25,117.37a20,20,0,0,1,2.23-.07h2.15c0-1,0-2.3,0-3,0-1.52-.2-2.1-1.54-2.1h-1.23a8.39,8.39,0,0,1-1.57-.08l.26-1.26a12.63,12.63,0,0,0,1.81.06h1.11c2,0,2.25.93,2.25,2.87v2.33c0,.3,0,1-.06,1.2h1l-.24,1.29h-4.61c-.61,0-1.5,0-1.82,0Z"></path><path class="cls-1" d="M126.48,117.36a18.48,18.48,0,0,1,1.93,0h2.69a14.24,14.24,0,0,0,.27-2.62c0-1.9-.42-2.51-2-2.51h-1.3a9.14,9.14,0,0,1-1.63-.08l.26-1.26a12.76,12.76,0,0,0,1.76.06h1.18c2.33,0,2.78,1,2.78,3.67a19.8,19.8,0,0,1-.46,4h-3.89a17.54,17.54,0,0,0-1.87,0Z"></path></svg>